<?xml version="1.0" standalone="no"?>
<!DOCTYPE svg PUBLIC "-//W3C//DTD SVG 20010904//EN"
 "http://www.w3.org/TR/2001/REC-SVG-20010904/DTD/svg10.dtd">
<svg version="1.0" xmlns="http://www.w3.org/2000/svg"
 width="128.000000pt" height="128.000000pt" viewBox="0 0 128.000000 128.000000"
 preserveAspectRatio="xMidYMid meet">

<g transform="translate(0.000000,128.000000) scale(0.100000,-0.100000)"
fill="#000000" stroke="none">
<path d="M371 1254 c-12 -15 -21 -33 -21 -40 0 -10 -15 -14 -51 -14 -60 0 -99
-20 -125 -64 -18 -29 -19 -61 -22 -526 -2 -457 -1 -498 15 -529 10 -19 31 -44
46 -55 27 -20 42 -21 415 -24 427 -3 430 -2 476 61 20 28 21 41 24 520 2 438
1 497 -14 535 -21 57 -62 82 -131 82 -46 0 -53 3 -53 20 0 11 -9 29 -20 40
-19 19 -33 20 -269 20 l-250 0 -20 -26z m479 -89 l0 -35 -210 0 -210 0 0 35 0
35 210 0 210 0 0 -35z m-490 -68 c9 -18 25 -34 40 -38 41 -11 456 -10 485 1
15 6 32 23 38 40 10 26 17 30 47 30 20 0 46 -7 58 -16 l22 -15 0 -493 c0 -488
0 -493 -21 -512 -20 -18 -43 -19 -363 -22 -187 -2 -355 0 -373 3 -66 12 -63
-14 -63 526 0 476 1 490 20 509 13 13 33 20 58 20 32 0 39 -5 52 -33z"/>
<path d="M458 883 c-44 -44 -49 -46 -72 -34 -28 16 -53 9 -63 -15 -4 -12 6
-29 35 -56 23 -21 45 -38 49 -38 5 0 41 33 82 74 65 66 72 76 62 95 -18 32
-42 26 -93 -26z"/>
<path d="M627 843 c-13 -12 -7 -51 9 -57 9 -3 80 -6 159 -6 136 0 145 1 155
21 23 42 1 49 -165 49 -83 0 -155 -3 -158 -7z"/>
<path d="M458 613 c-38 -37 -50 -45 -60 -35 -21 21 -66 15 -74 -10 -5 -17 2
-30 35 -60 49 -46 50 -46 140 45 56 58 62 67 52 86 -18 32 -42 26 -93 -26z"/>
<path d="M627 593 c-13 -12 -7 -51 9 -57 9 -3 80 -6 159 -6 136 0 145 1 155
21 23 42 1 49 -165 49 -83 0 -155 -3 -158 -7z"/>
<path d="M458 363 c-38 -37 -50 -45 -60 -35 -21 21 -66 15 -74 -10 -5 -17 2
-30 35 -60 49 -46 50 -46 140 45 56 58 62 67 52 86 -18 32 -42 26 -93 -26z"/>
<path d="M627 343 c-4 -3 -7 -17 -7 -29 0 -32 19 -35 184 -32 117 3 141 6 149
20 8 12 7 21 -2 32 -11 13 -39 16 -166 16 -83 0 -155 -3 -158 -7z"/>
</g>
</svg>
